<svg width="104" height="53" viewBox="0 0 104 53" fill="none" xmlns="http://www.w3.org/2000/svg">
<rect width="100" height="46" rx="6" fill="#7AE7FF"/>
<path d="M12.2564 31.2486C10.8714 31.2486 9.64335 31.0118 8.57209 30.5384C7.50675 30.0589 6.66631 29.399 6.05078 28.5586C5.43525 27.7182 5.12157 26.7505 5.10973 25.6555H9.53089C9.54865 26.0521 9.6759 26.4042 9.91264 26.712C10.1494 27.0138 10.4719 27.2506 10.8803 27.4222C11.2887 27.5939 11.7533 27.6797 12.2741 27.6797C12.795 27.6797 13.2537 27.5879 13.6502 27.4045C14.0527 27.2151 14.3664 26.9576 14.5913 26.6321C14.8162 26.3007 14.9257 25.9219 14.9197 25.4957C14.9257 25.0696 14.8043 24.6908 14.5558 24.3594C14.3072 24.0279 13.955 23.7705 13.4993 23.587C13.0495 23.4035 12.5168 23.3118 11.9013 23.3118H10.1346V20.1868H11.9013C12.4399 20.1868 12.9134 20.098 13.3217 19.9205C13.736 19.7429 14.0586 19.4943 14.2894 19.1747C14.5202 18.8492 14.6327 18.4763 14.6268 18.0561C14.6327 17.6477 14.535 17.2897 14.3338 16.9819C14.1385 16.6682 13.8633 16.4255 13.5082 16.2539C13.159 16.0823 12.7536 15.9964 12.2919 15.9964C11.8066 15.9964 11.3656 16.0823 10.9691 16.2539C10.5785 16.4255 10.2678 16.6682 10.0369 16.9819C9.80611 17.2956 9.68478 17.6596 9.67294 18.0739H5.47372C5.48556 16.9908 5.78741 16.0379 6.37926 15.2152C6.97112 14.3866 7.77604 13.7385 8.79403 13.271C9.81795 12.8034 10.9839 12.5696 12.2919 12.5696C13.594 12.5696 14.7392 12.7975 15.7276 13.2532C16.716 13.7089 17.4854 14.3304 18.0359 15.1175C18.5863 15.8988 18.8615 16.7836 18.8615 17.772C18.8674 18.7959 18.533 19.6393 17.8583 20.3022C17.1895 20.9651 16.3284 21.3735 15.2749 21.5273V21.6694C16.6835 21.8351 17.7459 22.2908 18.462 23.0366C19.1841 23.7823 19.5421 24.7145 19.5362 25.8331C19.5362 26.8866 19.2255 27.8217 18.604 28.6385C17.9885 29.4493 17.1303 30.0885 16.0295 30.5561C14.9345 31.0178 13.6768 31.2486 12.2564 31.2486ZM31.6656 22.4862V25.7976H24.6698V22.4862H31.6656ZM26.1613 17.3636V31H22.0509V17.3636H26.1613ZM34.2845 17.3636V31H30.2007V17.3636H34.2845ZM40.7631 31.2308C39.8931 31.2308 39.1207 31.0858 38.446 30.7958C37.7772 30.4999 37.2475 30.056 36.8569 29.4641C36.4722 28.8664 36.2798 28.1177 36.2798 27.218C36.2798 26.4605 36.413 25.8213 36.6793 25.3004C36.9457 24.7796 37.3126 24.3564 37.7802 24.0309C38.2478 23.7054 38.7863 23.4598 39.396 23.294C40.0056 23.1224 40.6566 23.007 41.3491 22.9478C42.1244 22.8768 42.7488 22.8028 43.2223 22.7259C43.6958 22.643 44.0391 22.5276 44.2521 22.3796C44.4711 22.2257 44.5806 22.0097 44.5806 21.7315V21.6871C44.5806 21.2314 44.4238 20.8793 44.1101 20.6307C43.7964 20.3821 43.3732 20.2578 42.8406 20.2578C42.2665 20.2578 41.8048 20.3821 41.4556 20.6307C41.1064 20.8793 40.8845 21.2225 40.7898 21.6605L36.7859 21.5185C36.9042 20.6899 37.209 19.95 37.7003 19.299C38.1974 18.642 38.8781 18.1271 39.7422 17.7543C40.6122 17.3755 41.6568 17.1861 42.8761 17.1861C43.7461 17.1861 44.5481 17.2897 45.282 17.4968C46.0159 17.698 46.6551 17.994 47.1996 18.3846C47.7441 18.7693 48.1643 19.2428 48.4602 19.805C48.7621 20.3673 48.913 21.0095 48.913 21.7315V31H44.8292V29.1001H44.7227C44.48 29.5618 44.1693 29.9524 43.7905 30.272C43.4176 30.5916 42.9767 30.8313 42.4677 30.9911C41.9646 31.1509 41.3964 31.2308 40.7631 31.2308ZM42.1037 28.3899C42.5713 28.3899 42.9915 28.2952 43.3643 28.1058C43.7431 27.9164 44.045 27.656 44.2699 27.3246C44.4948 26.9872 44.6072 26.5966 44.6072 26.1527V24.8565C44.483 24.9216 44.332 24.9808 44.1545 25.0341C43.9828 25.0874 43.7934 25.1377 43.5863 25.185C43.3791 25.2324 43.1661 25.2738 42.9471 25.3093C42.7281 25.3448 42.518 25.3774 42.3168 25.407C41.9084 25.4721 41.5592 25.5727 41.2692 25.7088C40.9851 25.8449 40.7661 26.0225 40.6122 26.2415C40.4643 26.4545 40.3903 26.709 40.3903 27.005C40.3903 27.4548 40.5501 27.7981 40.8697 28.0348C41.1952 28.2715 41.6065 28.3899 42.1037 28.3899ZM55.6779 25.3803L60.0369 17.3636H64.2095V31H60.0991V22.9567L55.7489 31H51.5675V17.3636H55.6779V25.3803ZM59.6463 12.5341H62.505C62.4991 13.6468 62.0788 14.5405 61.2443 15.2152C60.4157 15.8899 59.2912 16.2273 57.8707 16.2273C56.4503 16.2273 55.3228 15.8899 54.4883 15.2152C53.6597 14.5405 53.2483 13.6468 53.2543 12.5341H56.0863C56.0804 12.9247 56.2135 13.2798 56.4858 13.5994C56.758 13.919 57.2197 14.0788 57.8707 14.0788C58.504 14.0788 58.9568 13.922 59.229 13.6083C59.5013 13.2946 59.6404 12.9366 59.6463 12.5341ZM65.7676 20.6839V17.3636H78.5517V20.6839H74.1926V31H70.0733V20.6839H65.7676ZM84.7306 25.3803L89.0897 17.3636H93.2623V31H89.1518V22.9567L84.8017 31H80.6202V17.3636H84.7306V25.3803Z" fill="black"/>
</svg>
