<svg width="255" height="100" viewBox="0 0 255 100" fill="none" xmlns="http://www.w3.org/2000/svg">
<path d="M95.4545 36.3636C97.9645 36.3636 100 34.3285 100 31.8182C100 29.3079 97.9645 27.2727 95.4545 27.2727H84.85V19.693C84.85 17.1827 82.8149 15.1476 80.3045 15.1476H72.7279V4.54545C72.7279 2.03515 70.6924 0 68.1824 0C65.6718 0 63.637 2.03515 63.637 4.54545V15.1476H54.5476V4.54545C54.5476 2.03515 52.5124 0 50.0021 0C47.4918 0 45.4567 2.03515 45.4567 4.54545V15.1476H36.3661V4.54545C36.3661 2.03515 34.3306 0 31.8206 0C29.31 0 27.2752 2.03515 27.2752 4.54545V15.1476H19.6982C17.1879 15.1476 15.1527 17.1827 15.1527 19.693V27.2727H4.54545C2.03515 27.2727 0 29.3079 0 31.8182C0 34.3285 2.03515 36.3636 4.54545 36.3636H15.1527V45.4533H4.54545C2.03515 45.4533 0 47.4885 0 49.9988C0 52.5091 2.03515 54.5442 4.54545 54.5442H15.1527V63.6364H4.54545C2.03515 63.6364 0 65.6715 0 68.1818C0 70.6921 2.03515 72.7273 4.54545 72.7273H15.1527V80.3042C15.1527 82.8145 17.1879 84.8497 19.6982 84.8497H27.2752V95.4545C27.2752 97.9649 29.31 100 31.8206 100C34.3306 100 36.3661 97.9649 36.3661 95.4545V84.8497H45.4567V95.4545C45.4567 97.9649 47.4918 100 50.0021 100C52.5124 100 54.5476 97.9649 54.5476 95.4545V84.8497H63.637V95.4545C63.637 97.9649 65.6718 100 68.1824 100C70.6924 100 72.7279 97.9649 72.7279 95.4545V84.8497H80.3045C82.8149 84.8497 84.85 82.8145 84.85 80.3042V72.7273H95.4545C97.9645 72.7273 100 70.6921 100 68.1818C100 65.6715 97.9645 63.6364 95.4545 63.6364H84.85V54.5442H95.4545C97.9645 54.5442 100 52.5091 100 49.9988C100 47.4885 97.9645 45.4533 95.4545 45.4533H84.85V36.3636H95.4545ZM66.6673 62.1212C66.6673 64.6315 64.6318 66.6667 62.1218 66.6667H37.8812C35.3706 66.6667 33.3358 64.6315 33.3358 62.1212V37.8788C33.3358 35.3685 35.3706 33.3333 37.8812 33.3333H62.1218C64.6318 33.3333 66.6673 35.3685 66.6673 37.8788V62.1212Z" fill="black"/>
<path d="M115.989 54.4545H122.807L125.705 58.1534L129.506 62.517L135.352 69.7273H127.716L123.625 64.8352L121.205 61.358L115.989 54.4545ZM135.591 49.5455C135.591 53.3864 134.852 56.642 133.375 59.3125C131.898 61.983 129.898 64.0114 127.375 65.3977C124.864 66.7841 122.045 67.4773 118.92 67.4773C115.784 67.4773 112.96 66.7784 110.449 65.3807C107.938 63.983 105.943 61.9545 104.466 59.2955C103 56.625 102.267 53.375 102.267 49.5455C102.267 45.7045 103 42.4489 104.466 39.7784C105.943 37.108 107.938 35.0795 110.449 33.6932C112.96 32.3068 115.784 31.6136 118.92 31.6136C122.045 31.6136 124.864 32.3068 127.375 33.6932C129.898 35.0795 131.898 37.108 133.375 39.7784C134.852 42.4489 135.591 45.7045 135.591 49.5455ZM126.966 49.5455C126.966 47.2727 126.642 45.3523 125.994 43.7841C125.358 42.2159 124.438 41.0284 123.233 40.2216C122.04 39.4148 120.602 39.0114 118.92 39.0114C117.25 39.0114 115.813 39.4148 114.608 40.2216C113.403 41.0284 112.477 42.2159 111.83 43.7841C111.193 45.3523 110.875 47.2727 110.875 49.5455C110.875 51.8182 111.193 53.7386 111.83 55.3068C112.477 56.875 113.403 58.0625 114.608 58.8693C115.813 59.6761 117.25 60.0795 118.92 60.0795C120.602 60.0795 122.04 59.6761 123.233 58.8693C124.438 58.0625 125.358 56.875 125.994 55.3068C126.642 53.7386 126.966 51.8182 126.966 49.5455ZM157.32 49.6648V56.0909H141.161V49.6648H157.32ZM175.426 67.4943C172.665 67.4943 170.295 66.9261 168.318 65.7898C166.352 64.6534 164.841 63.0739 163.784 61.0511C162.727 59.017 162.199 56.6648 162.199 53.9943C162.199 51.3125 162.727 48.9602 163.784 46.9375C164.852 44.9034 166.369 43.3182 168.335 42.1818C170.313 41.0455 172.67 40.4773 175.409 40.4773C177.83 40.4773 179.938 40.9148 181.733 41.7898C183.54 42.6648 184.949 43.9034 185.96 45.5057C186.983 47.0966 187.523 48.9659 187.58 51.1136H179.79C179.631 49.7727 179.176 48.7216 178.426 47.9602C177.688 47.1989 176.722 46.8182 175.528 46.8182C174.563 46.8182 173.716 47.0909 172.989 47.6364C172.261 48.1705 171.693 48.9659 171.284 50.0227C170.886 51.0682 170.688 52.3636 170.688 53.9091C170.688 55.4545 170.886 56.7614 171.284 57.8295C171.693 58.8864 172.261 59.6875 172.989 60.233C173.716 60.767 174.563 61.0341 175.528 61.0341C176.301 61.0341 176.983 60.8693 177.574 60.5398C178.176 60.2102 178.67 59.7273 179.057 59.0909C179.443 58.4432 179.688 57.6591 179.79 56.7386H187.58C187.5 58.8977 186.96 60.7841 185.96 62.3977C184.972 64.0114 183.58 65.267 181.784 66.1648C180 67.0511 177.881 67.4943 175.426 67.4943ZM191.845 76.8182V40.8182H200.095V45.3011H200.351C200.692 44.5057 201.175 43.7386 201.8 43C202.436 42.2614 203.243 41.6591 204.22 41.1932C205.209 40.7159 206.391 40.4773 207.766 40.4773C209.584 40.4773 211.283 40.9545 212.862 41.9091C214.453 42.8636 215.737 44.3352 216.714 46.3239C217.692 48.3125 218.18 50.8466 218.18 53.9261C218.18 56.892 217.709 59.375 216.766 61.375C215.834 63.375 214.572 64.875 212.982 65.875C211.402 66.875 209.646 67.375 207.714 67.375C206.396 67.375 205.254 67.1591 204.288 66.7273C203.322 66.2955 202.51 65.7273 201.851 65.0227C201.203 64.3182 200.703 63.5625 200.351 62.7557H200.18V76.8182H191.845ZM200.01 53.9091C200.01 55.3182 200.197 56.5455 200.572 57.5909C200.959 58.6364 201.51 59.4489 202.226 60.0284C202.953 60.5966 203.822 60.8807 204.834 60.8807C205.857 60.8807 206.726 60.5966 207.442 60.0284C208.158 59.4489 208.697 58.6364 209.061 57.5909C209.436 56.5455 209.624 55.3182 209.624 53.9091C209.624 52.5 209.436 51.2784 209.061 50.2443C208.697 49.2102 208.158 48.4091 207.442 47.8409C206.737 47.2727 205.868 46.9886 204.834 46.9886C203.811 46.9886 202.942 47.267 202.226 47.8239C201.51 48.3807 200.959 49.1761 200.572 50.2102C200.197 51.2443 200.01 52.4773 200.01 53.9091ZM239.44 55.6989V40.8182H247.759V67H239.815V62.125H239.543C238.963 63.7273 237.974 65 236.577 65.9432C235.19 66.875 233.514 67.3409 231.548 67.3409C229.764 67.3409 228.196 66.9318 226.844 66.1136C225.491 65.2955 224.44 64.1534 223.69 62.6875C222.94 61.2102 222.56 59.483 222.548 57.5057V40.8182H230.884V55.8693C230.895 57.2898 231.27 58.4091 232.009 59.2273C232.747 60.0455 233.753 60.4545 235.026 60.4545C235.855 60.4545 236.599 60.2727 237.259 59.9091C237.929 59.5341 238.457 58.9943 238.844 58.2898C239.241 57.5739 239.44 56.7102 239.44 55.6989Z" fill="black"/>
</svg>
