<svg width="90" height="90" viewBox="0 0 90 90" fill="none" xmlns="http://www.w3.org/2000/svg">
<path d="M45 0C20.1498 0 0 20.1467 0 45C0 69.8533 20.1478 90 45 90C69.8542 90 90 69.8533 90 45C90 20.1467 69.8542 0 45 0ZM45 13.4555C53.2228 13.4555 59.886 20.121 59.886 28.3402C59.886 36.5614 53.2228 43.2249 45 43.2249C36.7812 43.2249 30.1179 36.5614 30.1179 28.3402C30.1179 20.121 36.7812 13.4555 45 13.4555ZM44.9901 78.2346C36.7891 78.2346 29.2779 75.2478 23.4844 70.304C22.073 69.1002 21.2587 67.3349 21.2587 65.4828C21.2587 57.1469 28.0049 50.4755 36.3424 50.4755H53.6616C62.001 50.4755 68.7216 57.1469 68.7216 65.4828C68.7216 67.3369 67.9111 69.0982 66.4978 70.302C60.7063 75.2478 53.1931 78.2346 44.9901 78.2346Z" fill="black"/>
</svg>
